<?xml version="1.0" encoding="UTF-8" standalone="no"?>
<!-- Created with Inkscape (http://www.inkscape.org/) -->

<svg
   xmlns:dc="http://purl.org/dc/elements/1.1/"
   xmlns:cc="http://creativecommons.org/ns#"
   xmlns:rdf="http://www.w3.org/1999/02/22-rdf-syntax-ns#"
   xmlns:svg="http://www.w3.org/2000/svg"
   xmlns="http://www.w3.org/2000/svg"
   xmlns:sodipodi="http://sodipodi.sourceforge.net/DTD/sodipodi-0.dtd"
   xmlns:inkscape="http://www.inkscape.org/namespaces/inkscape"
   width="142.80354"
   height="132.41577"
   id="svg2"
   sodipodi:version="0.32"
   inkscape:version="0.91 r13725"
   sodipodi:docname="exponent-8-21.svg"
   inkscape:output_extension="org.inkscape.output.svg.inkscape"
   version="1.1">
  <sodipodi:namedview
     id="base"
     pagecolor="#ffffff"
     bordercolor="#666666"
     borderopacity="1.0"
     gridtolerance="10000"
     guidetolerance="10"
     objecttolerance="10"
     inkscape:pageopacity="0.0"
     inkscape:pageshadow="2"
     inkscape:zoom="2.8130506"
     inkscape:cx="22.458106"
     inkscape:cy="101.77168"
     inkscape:document-units="px"
     inkscape:current-layer="layer1"
     inkscape:window-width="1366"
     inkscape:window-height="768"
     inkscape:window-x="-4"
     inkscape:window-y="-4"
     showborder="true"
     showgrid="false"
     inkscape:window-maximized="0" />
  <defs
     id="defs4">
    <inkscape:perspective
       id="perspective3306"
       inkscape:persp3d-origin="372.04724 : 350.78739 : 1"
       inkscape:vp_z="744.09448 : 526.18109 : 1"
       inkscape:vp_y="0 : 1000 : 0"
       inkscape:vp_x="0 : 526.18109 : 1"
       sodipodi:type="inkscape:persp3d" />
  </defs>
  <metadata
     id="metadata7">
    <rdf:RDF>
      <cc:Work
         rdf:about="">
        <dc:format>image/svg+xml</dc:format>
        <dc:type
           rdf:resource="http://purl.org/dc/dcmitype/StillImage" />
        <dc:title></dc:title>
      </cc:Work>
    </rdf:RDF>
  </metadata>
  <g
     transform="translate(588.3374,-594.12002)"
     id="layer1"
     inkscape:groupmode="layer"
     inkscape:label="Layer 1">
    <path
       inkscape:connector-curvature="0"
       d="m -466.46103,648.13151 c 0.63951,-0.54991 1.43798,-0.85674 2.15343,-1.283 0.88944,-0.4327 1.79975,-0.81983 2.69957,-1.22973 2.07442,-0.97678 4.20646,-1.36666 6.4688,-1.94532 0.87129,-0.12341 1.69789,0.24371 2.5356,0.36393 0.88421,0.10515 1.49517,0.80846 2.22094,1.2009 0.69626,0.47857 1.00494,1.2915 1.50034,1.92819 0.42047,0.65415 0.6161,1.41281 0.92282,2.11618 0.33957,0.76451 0.33707,1.61183 0.50448,2.41236 0.10726,0.74035 -0.0139,1.48458 -0.0209,2.22387 -0.006,0.74906 -0.30764,1.44428 -0.46043,2.16169 -0.21783,0.80559 -0.70978,1.4907 -1.06282,2.23215 -0.39284,0.75613 -1.03129,1.33194 -1.54472,1.99504 -0.56003,0.65259 -1.30105,1.10082 -1.94949,1.64948 -0.63188,0.44904 -1.30687,0.83225 -1.96024,1.24834 -0.58219,0.37147 -1.1993,0.68163 -1.79876,1.02236 -0.56314,0.30181 -1.12846,0.59863 -1.69293,0.89807 -1.82092,0.87791 -3.86706,1.14871 -5.80318,1.65454 -0.39235,0.064 -0.78204,0.14279 -1.17304,0.21419 -0.23618,0.0448 -0.47223,0.0904 -0.70835,0.1356 -0.20327,0.15202 -0.39473,-0.0332 -0.5604,-0.047 -3.28948,-1.81825 -0.0187,-2.49205 0.0317,-3.28859 0.56955,-0.27974 1.17802,-0.47824 1.76685,-0.71731 0.68914,-0.24034 1.33545,-0.58211 2.00287,-0.87303 1.92348,-0.93935 3.95814,-1.29313 6.05667,-1.85422 0.64541,-0.12638 1.29735,-0.21447 1.9459,-0.32168 0.5193,-0.15161 1.06155,-0.0487 1.58679,-0.0728 0.46841,-0.0162 0.91958,0.1326 1.37532,0.19832 0.63822,0.12811 1.02109,0.69756 1.51943,1.038 0.3665,0.37205 0.69489,0.77796 1.04218,1.16676 0.26858,0.27465 0.53714,0.54933 0.80572,0.824 0.27756,0.23747 0.47846,0.54333 0.71697,0.81419 0.19309,0.27067 0.41301,0.51883 0.61973,0.7785 0.17263,0.2033 0.34427,0.40743 0.51641,0.61115 0.12184,0.18629 0.24785,0.36981 0.37177,0.55472 0.0804,0.15718 0.0503,0.0352 0.15909,0.11147 0.0598,0.0706 0.0783,-0.0149 0.13906,-0.0264 l -4.47895,2.96606 c -0.1401,-0.1501 -0.30007,-0.28457 -0.42201,-0.45218 -0.1118,-0.16108 -0.23999,-0.31132 -0.33597,-0.48405 -0.0935,-0.1183 -0.16406,-0.2579 -0.28137,-0.356 -0.1756,-0.21142 -0.35452,-0.42013 -0.52682,-0.63431 -0.20643,-0.25915 -0.40243,-0.52623 -0.61908,-0.77715 -0.21165,-0.21639 -0.42591,-0.4311 -0.6357,-0.64993 -0.28512,-0.30798 -0.58924,-0.59899 -0.85559,-0.9242 -0.28228,-0.26869 -0.50561,-0.61017 -0.85034,-0.80941 -0.25501,-0.0214 -0.515,-0.20977 -0.79106,-0.0664 -0.36806,0.0234 -0.73622,0.01 -1.1026,0.0703 -0.45367,0.0897 -0.90511,0.1821 -1.35983,0.26872 -0.60257,0.14314 -1.2204,0.22901 -1.80901,0.42972 7.1334,-1.92355 3.89774,-1.07448 2.2801,-0.62381 -0.67082,0.3011 -1.36408,0.55606 -2.01434,0.90412 -0.58364,0.22813 -1.14346,0.5387 -1.75389,0.68556 -0.13294,-0.22311 -2.72702,-0.40381 -1.44593,-2.42693 0.0942,-0.0642 0.16942,-0.20583 0.2827,-0.1926 0.23549,-0.0455 0.47112,-0.0902 0.7065,-0.1363 0.37896,-0.0806 0.76185,-0.1437 1.13703,-0.24178 -0.86335,0.23608 -3.4527,0.94636 -2.58575,0.7238 0.5366,-0.22663 1.13252,-0.34079 1.62103,-0.68463 0.5896,-0.30792 1.19186,-0.59199 1.76895,-0.92381 0.64148,-0.37408 1.28672,-0.74365 1.92553,-1.12285 0.61926,-0.42191 1.30259,-0.75992 1.86189,-1.26852 0.48731,-0.4941 1.09759,-0.88885 1.47298,-1.49349 0.344,-0.56925 0.81778,-1.07411 1.03854,-1.71863 0.16153,-0.53284 0.48231,-1.03417 0.48897,-1.61293 0.0299,-0.58395 0.15922,-1.17011 0.0903,-1.76017 -0.12416,-0.62493 -0.0901,-1.29306 -0.37474,-1.88612 -0.25428,-0.5535 -0.40694,-1.16159 -0.76592,-1.66716 -0.35035,-0.35407 -0.55608,-0.89458 -1.07119,-1.08254 -0.54318,-0.14579 -1.05555,-0.47194 -1.64754,-0.44217 -0.61853,0.0806 -1.30143,-0.10003 -1.88403,0.24572 7.23107,-1.90286 3.59011,-0.96659 1.91888,-0.45705 -0.88872,0.37902 -1.80226,0.70471 -2.66792,1.13781 -0.68194,0.31166 -1.38352,0.58218 -2.04579,0.93495 l -5.19525,-1.36639 z"
       id="path2211"
       style="display:inline;overflow:visible;visibility:visible;opacity:1;fill:#3465a4;fill-opacity:1;fill-rule:nonzero;stroke:none;stroke-width:6.80000019;stroke-linecap:round;stroke-linejoin:miter;stroke-miterlimit:4;stroke-dasharray:none;stroke-dashoffset:0;stroke-opacity:1;marker:none;marker-mid:none;enable-background:accumulate" />
    <text
       transform="scale(1.0003571,0.99964302)"
       sodipodi:linespacing="121%"
       id="text2213"
       y="726.0957"
       x="-580.25403"
       style="font-style:italic;font-variant:normal;font-weight:normal;font-stretch:normal;font-size:21.70709038px;line-height:121.00000381%;font-family:'Comic Sans MS';-inkscape-font-specification:'Comic Sans MS, Italic';text-indent:0;text-align:start;text-decoration:none;text-decoration-line:none;letter-spacing:normal;word-spacing:normal;text-transform:none;direction:ltr;block-progression:tb;writing-mode:lr-tb;text-anchor:start;display:inline;overflow:visible;visibility:visible;opacity:1;fill:#4e9aff;fill-opacity:1;fill-rule:nonzero;stroke:none;stroke-width:1px;stroke-linecap:butt;stroke-linejoin:miter;stroke-miterlimit:4;stroke-dasharray:none;stroke-dashoffset:0;stroke-opacity:1;marker:none;marker-start:none;marker-mid:none;marker-end:none;enable-background:accumulate"
       xml:space="preserve"><tspan
         y="726.0957"
         x="-580.25403"
         id="tspan2215"
         sodipodi:role="line">基数（底数）</tspan></text>
    <g
       transform="matrix(0.37441865,0,0,0.37415141,-591.05051,483.07628)"
       style="opacity:0.6"
       id="g2217">
      <path
         inkscape:connector-curvature="0"
         style="display:inline;overflow:visible;visibility:visible;opacity:1;fill:#4e9aff;fill-opacity:1;fill-rule:nonzero;stroke:none;stroke-width:6.80000019;stroke-linecap:round;stroke-linejoin:miter;stroke-miterlimit:4;stroke-dasharray:none;stroke-dashoffset:0;stroke-opacity:1;marker:none;marker-mid:none;enable-background:accumulate"
         id="path2219"
         d="m 144.1078,604.15322 c 0.63654,-1.07168 1.21948,-2.17388 1.82919,-3.26078 1.09943,-2.06739 2.4083,-4.00801 3.66913,-5.97661 1.83936,-2.86037 4.07968,-5.4159 6.23892,-8.02915 2.58529,-3.01037 5.48156,-5.72114 8.37417,-8.42777 3.13017,-2.90425 6.50096,-5.52187 9.88146,-8.12226 3.50747,-2.66488 7.23887,-5.00528 10.9674,-7.3417 3.3313,-2.08333 6.79655,-3.93441 10.24047,-5.82028 2.87392,-1.54359 5.79075,-3.00385 8.70131,-4.47603 2.38388,-1.22688 4.84508,-2.28947 7.28336,-3.39994 1.65128,-0.719 3.31695,-1.40412 4.97717,-2.10201 1.01518,-0.42352 2.0309,-0.84574 3.04635,-1.26861 l 7.02458,2.50377 c -1.01619,0.42211 -2.03235,0.84425 -3.04855,1.26631 -1.65671,0.68873 -3.31421,1.37556 -4.96957,2.06754 -2.42228,1.05515 -4.86863,2.05864 -7.23359,3.2414 -2.90556,1.44001 -5.81818,2.86572 -8.67827,4.39572 -3.42527,1.82385 -6.87022,3.61589 -10.18835,5.63285 -3.6975,2.2505 -7.39785,4.50606 -10.89405,7.06497 -3.36001,2.49684 -6.70461,5.01887 -9.81492,7.82804 -2.86549,2.59328 -5.72992,5.19588 -8.3104,8.08061 -2.13692,2.48349 -4.35348,4.90822 -6.18555,7.63704 -1.25263,1.87905 -2.55407,3.72846 -3.64206,5.71204 -0.60871,1.10187 -1.23096,2.19637 -1.8262,3.30573 l -7.442,-0.51088 z" />
      <path
         inkscape:connector-curvature="0"
         style="display:inline;overflow:visible;visibility:visible;opacity:1;fill:#4e9aff;fill-opacity:1;fill-rule:nonzero;stroke:none;stroke-width:6.80000019;stroke-linecap:round;stroke-linejoin:miter;stroke-miterlimit:4;stroke-dasharray:none;stroke-dashoffset:0;stroke-opacity:1;marker:none;marker-mid:none;enable-background:accumulate"
         id="path2221"
         d="m 204.76737,540.58018 c 0.94332,-0.0191 1.86343,0.22231 2.78696,0.33249 1.05005,0.26396 2.09274,0.5612 3.13978,0.84198 1.17344,0.31379 2.39082,0.38558 3.58488,0.57816 1.20974,0.15658 2.40469,0.40138 3.60643,0.60198 0.80847,0.16608 1.62163,0.30862 2.43223,0.46289 0.65205,0.0878 1.29025,0.25151 1.93448,0.37709 0.71435,0.16659 1.42306,0.36503 2.13271,0.54707 0.55077,0.15734 1.10426,0.30489 1.65638,0.45733 0.35257,0.0773 0.69344,0.20256 1.03774,0.30314 0.18379,0.0805 0.37591,0.13892 0.56379,0.20835 l -5.8088,4.68257 c -0.1666,-0.0439 -0.32824,-0.10955 -0.50037,-0.13171 -0.33078,-0.0849 -0.66948,-0.15334 -0.99704,-0.25599 -0.54264,-0.1418 -1.08168,-0.2978 -1.62798,-0.42544 -0.67535,-0.14159 -1.34376,-0.31605 -2.02603,-0.42476 -0.63323,-0.11278 -1.26909,-0.21066 -1.89983,-0.33837 -0.80561,-0.14964 -1.60775,-0.31929 -2.41709,-0.44896 -1.17922,-0.17653 -2.35755,-0.36005 -3.53789,-0.52963 -1.26798,-0.27506 -2.5673,-0.42259 -3.80756,-0.82598 -0.97403,-0.19963 -1.91657,-0.5716 -2.92416,-0.5993 -0.88821,-0.0672 -1.78082,-0.0911 -2.6661,-0.20173 l 5.33747,-5.21118 z" />
      <path
         inkscape:connector-curvature="0"
         style="display:inline;overflow:visible;visibility:visible;opacity:1;fill:#4e9aff;fill-opacity:1;fill-rule:nonzero;stroke:none;stroke-width:6.80000019;stroke-linecap:round;stroke-linejoin:miter;stroke-miterlimit:4;stroke-dasharray:none;stroke-dashoffset:0;stroke-opacity:1;marker:none;marker-mid:none;enable-background:accumulate"
         id="path2223"
         d="m 209.91555,562.12771 c 0.36015,-0.78934 0.77532,-1.55298 1.16292,-2.32934 0.50563,-1.06306 1.20379,-2.01503 1.80492,-3.02128 0.66761,-1.11022 1.56797,-2.04784 2.35073,-3.07016 0.66898,-0.78107 1.37805,-1.52603 2.06705,-2.28901 0.51314,-0.61141 1.1017,-1.15019 1.65279,-1.72553 0.6797,-0.70534 1.43947,-1.32378 2.1592,-1.98565 0.62611,-0.58231 1.32182,-1.08189 1.98241,-1.62258 0.28164,-0.17476 0.51634,-0.40913 0.77381,-0.61314 l 7.18606,1.99951 c -0.23334,0.13447 -0.52658,0.2018 -0.72267,0.41646 -0.6433,0.4646 -1.30385,0.906 -1.9307,1.39435 -0.70747,0.60198 -1.44192,1.17205 -2.122,1.80558 -0.5401,0.51427 -1.10511,1.00392 -1.62039,1.54288 -0.68592,0.73991 -1.39399,1.45979 -2.0578,2.21977 -0.7664,0.89594 -1.6306,1.7148 -2.30199,2.69106 -0.59136,0.89143 -1.26664,1.73156 -1.77616,2.67742 -0.38398,0.71911 -0.77097,1.43926 -1.1527,2.15875 l -7.45548,-0.24909 z" />
    </g>
    <path
       inkscape:connector-curvature="0"
       d="m -479.49122,664.24211 c -0.15214,-0.17784 -0.40504,-0.20046 -0.60207,-0.29795 -0.53055,-0.2025 -1.09279,-0.29747 -1.64213,-0.42852 -0.87541,-0.20651 -1.77289,-0.2242 -2.66399,-0.28462 -0.99473,-0.0535 -1.98512,0.0428 -2.97502,0.11197 -1.935,0.2784 -6.24658,1.51376 2.01967,-0.6063 -0.8408,0.13645 -1.62182,0.4623 -2.41048,0.76488 -0.65011,0.25344 -1.21529,0.65904 -1.80661,1.01693 -0.5354,0.3219 -0.89709,0.82244 -1.31561,1.26632 -0.38931,0.47387 -0.62877,1.03636 -0.9137,1.57156 -0.24683,0.44293 -0.30409,0.94706 -0.43944,1.42365 -0.12478,0.44572 0.0647,0.88622 0.0964,1.32109 0.0852,0.49494 0.38753,0.89926 0.5977,1.33885 0.26614,0.49304 0.70003,0.85262 1.06185,1.26608 0.45482,0.4687 1.01434,0.80521 1.54088,1.1813 0.62425,0.40546 1.28517,0.74896 1.93543,1.10976 0.64195,0.34648 1.28309,0.69448 1.92441,1.04212 0.58975,0.31541 1.18291,0.62446 1.77538,0.93474 0.59568,0.28738 1.14458,0.65595 1.70753,0.99886 0.55802,0.34873 1.04581,0.79032 1.55415,1.20328 0.50238,0.4138 0.91424,0.91713 1.35295,1.39276 0.39531,0.43306 0.706,0.93142 1.05081,1.40234 0.30416,0.40976 0.51841,0.87364 0.76989,1.31425 0.22379,0.40289 0.36962,0.84106 0.55426,1.26118 0.18875,0.41706 0.27226,0.86836 0.40066,1.30375 0.14366,0.5326 0.0869,1.08301 0.1122,1.6246 -0.008,0.48441 -0.0772,0.96432 -0.12212,1.44572 -0.0381,0.45274 -0.15738,0.89208 -0.23598,1.33756 -0.0936,0.50372 -0.32136,0.96382 -0.49201,1.44156 -0.20665,0.50606 -0.51739,0.95694 -0.78464,1.43001 -0.2766,0.45748 -0.61245,0.87357 -0.9233,1.30693 -0.29659,0.4164 -0.66125,0.77537 -0.99839,1.15688 -0.34292,0.40098 -0.78196,0.69502 -1.17987,1.03378 -1.80671,1.22841 -4.1278,1.37318 -6.17677,1.91038 -0.56939,0.0663 -1.14247,0.0227 -1.71249,0.0226 -0.60501,0.0276 -1.18616,-0.1381 -1.77341,-0.23987 -0.65387,-0.13249 -1.2403,-0.44969 -1.84516,-0.71168 -0.63411,-0.29816 -1.21049,-0.69689 -1.80345,-1.06528 -0.64859,-0.40408 -1.22377,-0.9054 -1.81202,-1.38825 -0.60589,-0.49724 -1.10209,-1.10073 -1.61625,-1.68583 -0.50438,-0.56187 -0.84655,-1.23387 -1.23808,-1.87061 -0.39984,-0.68735 -0.61158,-1.44875 -0.85419,-2.19746 -0.22685,-0.75437 -0.235,-1.5351 -0.27572,-2.31222 -0.0244,-0.77673 0.16735,-1.52228 0.32598,-2.27336 0.1894,-0.81309 0.64091,-1.49477 1.05728,-2.19986 0.44856,-0.66167 1.044,-1.18863 1.61806,-1.73453 0.5212,-0.47945 1.11064,-0.87239 1.67732,-1.29325 0.55126,-0.40868 1.16894,-0.70737 1.76427,-1.04177 0.5469,-0.28557 1.11905,-0.51723 1.68281,-0.7661 0.51628,-0.23153 1.04732,-0.42726 1.57279,-0.63618 0.50292,-0.18347 1.00831,-0.36044 1.51134,-0.54351 0.47033,-0.15777 0.92156,-0.36403 1.38061,-0.55017 0.47638,-0.20406 0.9274,-0.45961 1.38887,-0.69368 0.46969,-0.2389 0.91523,-0.5201 1.3711,-0.78311 0.46315,-0.27246 0.87792,-0.61426 1.31286,-0.9267 0.40249,-0.30758 0.77428,-0.65148 1.15885,-0.98022 0.34536,-0.28571 0.6101,-0.64879 0.9146,-0.97262 0.27802,-0.3142 0.4628,-0.6928 0.69376,-1.03856 0.2345,-0.35984 0.36311,-0.77182 0.54423,-1.15683 0.18408,-0.42434 0.27548,-0.87825 0.40574,-1.31921 0.12155,-0.42744 0.15962,-0.87144 0.23928,-1.30632 0.0801,-0.50005 -0.0305,-0.99687 -0.0599,-1.49323 -0.0766,-0.75326 -0.3599,-1.44925 -0.60295,-2.15571 -0.0863,-0.25768 -0.26162,-0.46527 -0.39244,-0.69789 l 5.70456,-2.20944 c 0.17038,0.34429 0.38631,0.6688 0.51222,1.03507 0.29938,0.8988 0.64626,1.78559 0.76224,2.73517 0.073,0.67984 0.20417,1.35744 0.15545,2.04593 -0.0544,0.55844 -0.0673,1.12313 -0.20575,1.67167 -0.12609,0.54485 -0.21334,1.10024 -0.39447,1.6316 -0.17875,0.50211 -0.31859,1.01935 -0.54996,1.50192 -0.23573,0.46533 -0.43488,0.95061 -0.7205,1.38991 -0.3151,0.46012 -0.58412,0.95656 -0.96915,1.36669 -0.39361,0.42436 -0.76445,0.87333 -1.21105,1.247 -0.44998,0.39527 -0.88747,0.80631 -1.36924,1.16409 -0.46975,0.34137 -0.92519,0.70474 -1.43,0.99566 -0.47686,0.28144 -0.94612,0.57638 -1.43387,0.83931 -0.47987,0.24897 -0.9466,0.52523 -1.44512,0.73778 -0.51377,0.20741 -1.0176,0.44137 -1.54155,0.62462 -0.51335,0.18328 -1.0294,0.35853 -1.54067,0.54797 -0.54823,0.2146 -1.09615,0.42949 -1.64266,0.64848 -0.56259,0.2388 -1.13207,0.4621 -1.67349,0.74752 -0.54088,0.31527 -1.09689,0.60586 -1.59932,0.98358 -0.5184,0.38961 -1.05835,0.75454 -1.52336,1.21027 -0.34738,0.41143 -0.80907,0.74226 -1.00129,1.27264 -0.14313,0.49326 -0.40795,0.96421 -0.3879,1.50135 0.0272,0.52914 -0.0563,1.07263 0.12587,1.58956 0.20596,0.53262 0.3214,1.10748 0.65464,1.58817 0.33679,0.47388 0.61321,0.9954 1.03579,1.40634 0.4573,0.4452 0.88582,0.92292 1.40899,1.29661 0.53523,0.37449 1.0502,0.78052 1.62891,1.08999 0.5105,0.25487 1.00063,0.55797 1.55575,0.71388 0.47734,0.0873 0.94264,0.26023 1.43883,0.23138 0.48401,-0.0232 0.96992,-0.0156 1.45194,-0.0782 0.45885,-0.0975 0.93314,-0.12973 1.37079,-0.31436 -1.15965,0.30954 -4.63456,1.23517 -3.4546,1.01527 0.3311,-0.13428 0.7265,-0.16485 1.01512,-0.41168 0.30949,-0.25758 0.66717,-0.46324 0.93171,-0.77537 0.29677,-0.3487 0.6314,-0.66845 0.89204,-1.04814 0.25295,-0.36296 0.54001,-0.70371 0.75947,-1.08994 0.16229,-0.31567 0.38196,-0.60725 0.48906,-0.95128 0.0855,-0.3303 0.23714,-0.6491 0.25804,-0.99632 0.0505,-0.39692 0.1287,-0.79127 0.15136,-1.19198 0.003,-0.32177 0.0638,-0.64643 0.012,-0.96786 -0.0951,-0.29959 -0.14451,-0.61779 -0.28682,-0.90314 -0.15354,-0.3311 -0.27175,-0.67999 -0.46116,-0.99451 -0.21714,-0.34092 -0.39845,-0.70657 -0.65235,-1.02436 -0.30076,-0.37414 -0.57143,-0.77402 -0.91528,-1.11268 -0.38433,-0.35393 -0.73562,-0.74668 -1.16744,-1.04766 -0.45357,-0.30767 -0.8817,-0.65565 -1.37173,-0.90823 -0.53715,-0.28966 -1.0703,-0.58669 -1.61476,-0.86277 -0.59893,-0.31881 -1.20048,-0.63276 -1.79373,-0.96217 -0.64969,-0.35554 -1.30217,-0.70615 -1.94496,-1.07409 -0.70959,-0.4257 -1.43002,-0.83635 -2.08671,-1.34337 -0.62262,-0.51338 -1.26518,-1.00618 -1.79043,-1.62576 -0.45868,-0.59182 -0.97479,-1.14432 -1.31024,-1.82384 -0.29976,-0.66116 -0.66998,-1.29554 -0.81534,-2.01831 -0.12047,-0.71881 -0.32628,-1.42893 -0.25133,-2.16939 0.1003,-0.71855 0.12144,-1.4526 0.40361,-2.13718 0.29028,-0.71334 0.53021,-1.45181 0.94209,-2.11104 0.43571,-0.6845 0.83636,-1.39563 1.42434,-1.9689 0.61885,-0.56518 1.21814,-1.15428 1.95563,-1.57267 0.84571,-0.47474 1.67638,-0.98493 2.60521,-1.29161 2.69802,-0.69784 5.0203,-1.54576 7.73054,-1.55561 1.07926,0.009 2.1608,-0.006 3.23386,0.13729 1.00539,0.1682 2.01997,0.30141 2.98845,0.63785 0.71688,0.28335 1.45529,0.5216 2.07364,1.00207 0.34282,0.33781 0.76324,0.60672 1.0183,1.03084 l -5.54002,2.6201 z"
       id="path2225"
       style="display:inline;overflow:visible;visibility:visible;opacity:1;fill:#4e9aff;fill-opacity:1;fill-rule:nonzero;stroke:none;stroke-width:6;stroke-linecap:round;stroke-linejoin:miter;stroke-miterlimit:4;stroke-dasharray:none;stroke-dashoffset:0;stroke-opacity:1;marker:none;marker-mid:none;enable-background:accumulate" />
    <g
       inkscape:transform-center-y="17.023951"
       inkscape:transform-center-x="9.4099589"
       style="opacity:0.6;fill:#3465a4"
       transform="matrix(0.00686354,-0.57089709,-0.37435576,-0.01046697,-298.40897,909.29955)"
       id="g2227">
      <path
         inkscape:connector-curvature="0"
         style="display:inline;overflow:visible;visibility:visible;opacity:1;fill:#3465a4;fill-opacity:1;fill-rule:nonzero;stroke:none;stroke-width:6.80000019;stroke-linecap:round;stroke-linejoin:miter;stroke-miterlimit:4;stroke-dasharray:none;stroke-dashoffset:0;stroke-opacity:1;marker:none;marker-mid:none;enable-background:accumulate"
         id="path2229"
         d="m 478.22384,442.87275 c 1.42683,0.2263 2.84214,0.51723 4.26264,0.77755 2.06615,0.36395 4.07051,0.98385 6.09345,1.52133 2.2963,0.60632 4.45706,1.59142 6.6578,2.45757 2.23163,0.88654 4.2557,2.17545 6.34137,3.33833 2.15551,1.26045 3.9631,2.97304 5.83073,4.60196 1.86527,1.7509 3.60377,3.62855 5.36654,5.48044 1.73311,1.68815 3.12416,3.66395 4.62073,5.54782 1.46169,1.92702 2.38702,4.1583 3.47446,6.29444 1.03251,2.19451 1.74991,4.51037 2.56497,6.78704 0.83307,2.21501 1.12197,4.55917 1.58257,6.85931 0.34943,2.54669 0.33388,5.1169 0.38295,7.68026 0.0395,2.54044 -0.0213,5.0804 -0.0521,7.62037 -0.0371,2.2685 -0.21501,4.5302 -0.35068,6.79364 -0.12146,1.63178 -0.25398,3.26269 -0.38233,4.89393 -0.045,0.56542 -0.0901,1.13083 -0.13519,1.69625 l -7.40461,0.87957 c 0.0456,-0.56529 0.0912,-1.13057 0.1367,-1.69586 0.12994,-1.62562 0.26277,-3.25103 0.38793,-4.87703 0.14303,-2.21036 0.3266,-4.41871 0.37372,-6.63448 0.037,-2.50856 0.10422,-5.01714 0.0671,-7.52636 -0.0338,-2.4288 -0.006,-4.86365 -0.31049,-7.27924 -0.41575,-2.12159 -0.66905,-4.28453 -1.44782,-6.32434 -0.77852,-2.15929 -1.46062,-4.35782 -2.45272,-6.43564 -1.0133,-1.93991 -1.86627,-3.97591 -3.2431,-5.70668 -1.44954,-1.76396 -2.81281,-3.60422 -4.45591,-5.2037 -1.71857,-1.78549 -3.40905,-3.60198 -5.25165,-5.26269 -1.78711,-1.41828 -3.45784,-3.00076 -5.50556,-4.06352 -2.00548,-1.03752 -3.95812,-2.18954 -6.08547,-2.97766 -2.12499,-0.76103 -4.2147,-1.63425 -6.41952,-2.15679 -1.96647,-0.46435 -3.91745,-1.00362 -5.91759,-1.3162 -1.3611,-0.1931 -2.70882,-0.51454 -4.08654,-0.57978 l 5.35769,-5.18984 z" />
      <path
         inkscape:connector-curvature="0"
         style="display:inline;overflow:visible;visibility:visible;opacity:1;fill:#3465a4;fill-opacity:1;fill-rule:nonzero;stroke:none;stroke-width:6.80000019;stroke-linecap:round;stroke-linejoin:miter;stroke-miterlimit:4;stroke-dasharray:none;stroke-dashoffset:0;stroke-opacity:1;marker:none;marker-mid:none;enable-background:accumulate"
         id="path2231"
         d="m 471.47648,441.00942 c 1.10763,-0.0319 2.1471,-0.4313 3.21821,-0.64646 -0.45635,0.0162 -6.81456,1.94101 -0.4523,-0.10913 1.80999,-0.65855 3.63077,-1.2864 5.4489,-1.92182 1.7198,-0.55796 3.4027,-1.21971 5.1012,-1.83661 1.36189,-0.49939 2.70227,-1.05417 4.05335,-1.58123 0.85256,-0.34184 1.70391,-0.68669 2.55586,-1.03003 0.51814,-0.2092 1.03624,-0.4185 1.55435,-0.62774 0.0639,-0.0258 0.12781,-0.0516 0.19171,-0.0774 l 7.01572,2.5354 c -0.064,0.0258 -0.12792,0.0516 -0.19188,0.0774 -0.51858,0.20913 -1.03718,0.41824 -1.55576,0.62739 -0.85309,0.34418 -1.70628,0.68811 -2.55926,1.03254 -1.35802,0.54325 -2.70707,1.10934 -4.07406,1.62974 -1.71011,0.65083 -3.40602,1.34038 -5.13797,1.93282 -1.81514,0.62718 -3.63875,1.23096 -5.44021,1.89673 -3.63894,1.31522 -7.26704,2.67529 -11.11419,3.31431 -1.12313,0.17704 -2.24837,0.34162 -3.36953,0.53114 l 4.75586,-5.74699 z" />
      <path
         inkscape:connector-curvature="0"
         style="display:inline;overflow:visible;visibility:visible;opacity:1;fill:#3465a4;fill-opacity:1;fill-rule:nonzero;stroke:none;stroke-width:6.80000019;stroke-linecap:round;stroke-linejoin:miter;stroke-miterlimit:4;stroke-dasharray:none;stroke-dashoffset:0;stroke-opacity:1;marker:none;marker-mid:none;enable-background:accumulate"
         id="path2233"
         d="m 476.75447,441.4202 c 0.73842,0.71276 1.36157,1.53028 2.04154,2.2945 0.68564,0.84198 1.24302,1.77564 1.86402,2.66274 0.60116,0.90111 1.10439,1.86097 1.65648,2.79129 0.47972,0.81947 0.89771,1.67239 1.34653,2.50852 0.39714,0.69052 0.60882,1.46187 0.9126,2.19131 0.2696,0.71502 0.42684,1.46399 0.64012,2.19553 0.12832,0.49909 0.25167,0.99945 0.3775,1.49917 0.11148,0.3841 0.1693,0.78044 0.25388,1.17031 0.0716,0.37925 0.10443,0.76413 0.15663,1.14611 0.0288,0.24178 0.0565,0.48368 0.0847,0.72552 0.017,0.14689 0.034,0.29379 0.0511,0.44069 0.0103,0.0892 0.0206,0.17835 0.031,0.26752 0.006,0.0541 0.0125,0.10828 0.0188,0.16242 7.8e-4,0.007 0.002,0.0134 0.002,0.02 l -7.31278,1.48308 c -7.7e-4,-0.007 -0.002,-0.0134 -0.002,-0.02 -0.006,-0.0541 -0.0124,-0.1083 -0.0187,-0.16245 -0.0102,-0.0892 -0.0205,-0.17837 -0.0308,-0.26756 -0.0169,-0.14683 -0.0338,-0.29366 -0.0506,-0.44049 -0.0276,-0.23975 -0.0551,-0.47951 -0.0828,-0.71924 -0.0398,-0.32469 -0.0717,-0.65043 -0.11928,-0.97411 -0.0668,-0.31753 -0.106,-0.64159 -0.20057,-0.95335 -0.1234,-0.49207 -0.24443,-0.98474 -0.37022,-1.47622 -0.18655,-0.638 -0.31909,-1.29296 -0.55993,-1.91494 -0.25848,-0.59559 -0.43414,-1.23123 -0.77701,-1.79041 -0.43536,-0.80173 -0.8408,-1.62005 -1.30623,-2.40546 -0.52635,-0.86616 -1.00177,-1.76432 -1.57949,-2.59922 -0.57066,-0.77497 -1.06533,-1.60968 -1.71357,-2.32705 -0.61717,-0.64008 -1.15974,-1.35958 -1.85466,-1.92351 l 6.54174,-3.5847 z" />
    </g>
    <text
       transform="scale(1.0003571,0.99964302)"
       sodipodi:linespacing="100%"
       id="text2235"
       y="615.14142"
       x="-515.15997"
       style="font-style:italic;font-variant:normal;font-weight:normal;font-stretch:normal;font-size:21.70709038px;line-height:100%;font-family:'Comic Sans MS';-inkscape-font-specification:'Comic Sans MS, Italic';text-indent:0;text-align:center;text-decoration:none;text-decoration-line:none;letter-spacing:normal;word-spacing:normal;text-transform:none;direction:ltr;block-progression:tb;writing-mode:lr-tb;text-anchor:middle;display:inline;overflow:visible;visibility:visible;opacity:1;fill:#3465a4;fill-opacity:1;fill-rule:nonzero;stroke:none;stroke-width:1px;stroke-linecap:butt;stroke-linejoin:miter;stroke-miterlimit:4;stroke-dasharray:none;stroke-dashoffset:0;stroke-opacity:1;marker:none;marker-start:none;marker-mid:none;marker-end:none;enable-background:accumulate"
       xml:space="preserve"><tspan
         y="615.14142"
         x="-515.15997"
         id="tspan2245"
         sodipodi:role="line">指数</tspan></text>
    <text
       transform="scale(1.0003571,0.99964302)"
       sodipodi:linespacing="100%"
       id="text2239"
       y="629.5896"
       x="-588.12738"
       style="font-style:italic;font-variant:normal;font-weight:normal;font-stretch:normal;font-size:17.0555706px;line-height:100%;font-family:'Comic Sans MS';-inkscape-font-specification:'Comic Sans MS, Italic';text-indent:0;text-align:start;text-decoration:none;text-decoration-line:none;letter-spacing:normal;word-spacing:normal;text-transform:none;direction:ltr;block-progression:tb;writing-mode:lr-tb;text-anchor:start;display:inline;overflow:visible;visibility:visible;opacity:1;fill:#3465a4;fill-opacity:1;fill-rule:nonzero;stroke:none;stroke-width:1px;stroke-linecap:butt;stroke-linejoin:miter;stroke-miterlimit:4;stroke-dasharray:none;stroke-dashoffset:0;stroke-opacity:1;marker:none;marker-start:none;marker-mid:none;marker-end:none;enable-background:accumulate"
       xml:space="preserve"><tspan
         y="629.5896"
         x="-588.12738"
         id="tspan2257"
         sodipodi:role="line" /></text>
  </g>
</svg>
